<svg id="Layer_1" data-name="Layer 1" xmlns="http://www.w3.org/2000/svg" xmlns:xlink="http://www.w3.org/1999/xlink" viewBox="0 0 1920 1080"><defs><style>.cls-1{fill:#eaeaea;}.cls-2{fill:#7c7c7c;}.cls-3{fill:#fed4d5;}.cls-4{fill:#262626;}.cls-5{fill:#161313;}.cls-6{fill:#840026;}.cls-7{fill:#bdb29f;}.cls-8{fill:url(#linear-gradient);}.cls-9{fill:#8e002c;}.cls-10{fill:#470b1f;}.cls-11{fill:#fff;}.cls-12{fill:#282828;}.cls-13{fill:#c6774b;}.cls-14{fill:#c9c9c9;}.cls-15{fill:#707070;}.cls-16{fill:#de8d5a;}.cls-17,.cls-18,.cls-19,.cls-24{fill:none;stroke-miterlimit:10;}.cls-17,.cls-19{stroke:#000;}.cls-17{stroke-width:6px;}.cls-18{stroke-width:11px;stroke:url(#linear-gradient-2);}.cls-19{stroke-width:4px;}.cls-20{fill:#ea894e;}.cls-21{fill:#5b5b5b;}.cls-22{fill:#898989;}.cls-23{fill:#a0a0a0;}.cls-24{stroke:#161313;stroke-width:5px;}</style><linearGradient id="linear-gradient" x1="264.06" y1="677.17" x2="351.49" y2="677.17" gradientUnits="userSpaceOnUse"><stop offset="0.28" stop-color="#fed3dc"/><stop offset="0.9" stop-color="#ce9397"/></linearGradient><linearGradient id="linear-gradient-2" x1="536.27" y1="378.29" x2="689.71" y2="466.88" gradientTransform="translate(1707.22 -79.1) rotate(90)" gradientUnits="userSpaceOnUse"><stop offset="0.44" stop-color="#de8d5a"/><stop offset="0.88" stop-color="#c6774b"/></linearGradient></defs><circle class="cls-1" cx="735.25" cy="714.44" r="288.87"/><ellipse class="cls-1" cx="1524.55" cy="741.05" rx="262.61" ry="256.52"/><circle class="cls-1" cx="1395.33" cy="637.89" r="187.7"/><circle class="cls-1" cx="438.56" cy="712.81" r="242.91"/><circle class="cls-1" cx="898.68" cy="415.58" r="436.52"/><circle class="cls-1" cx="1412.6" cy="351.02" r="52.55"/><circle class="cls-1" cx="1325.89" cy="226.35" r="135.94"/><circle class="cls-1" cx="1803.6" cy="566.3" r="37.07"/><circle class="cls-1" cx="81.86" cy="737.99" r="28.92"/><circle class="cls-1" cx="167.3" cy="612.3" r="20.25"/><circle class="cls-1" cx="902.9" cy="1046.19" r="16.67"/><path class="cls-2" d="M416.7,960.91s-25.31,12.61-41,5.69l-38,52.18s-.71,7.67,5.64,10.39c0,0,43.68-3.54,91.13-42.34C434.44,986.83,436.63,986.47,416.7,960.91Z"/><path class="cls-2" d="M431,955.08s14.07,15.83,15.13,23.3l-15.9,11.82-17.6-27.47"/><path class="cls-2" d="M212.76,974.92s-27.68-5.81-35.72-21L114.88,971.3s-5.32,5.57-2,11.65c0,0,36.47,24.31,97.75,23.3C210.6,1006.25,212.54,1007.33,212.76,974.92Z"/><path class="cls-3" d="M232.16,553s32.56-39.69,60.49-42V469L262.41,445.9l-26.59-10.79-16.95-3.47-2.89-1s-9,71.28-1.35,79a26.43,26.43,0,0,0,2.73,1.19,27.46,27.46,0,0,0,8.12,1.62c2.8.19,7,1.22,13.07,5A40.58,40.58,0,0,1,240,526.6C240.55,539,235.13,548.59,232.16,553Z"/><path class="cls-4" d="M354.69,718.82H251.35s5.06,62.87,34.69,97.56c0,0-6,33.84,42,70.9,0,0,50.27,47.93,47.68,79.81,0,0,30.58,11.14,57-8.81,0,0-36.8-96.4-74.37-111.69,0,0-17.82-61.74-4.24-92C354.1,754.55,359.11,718.82,354.69,718.82Z"/><path class="cls-4" d="M243.83,723.65s-29.05,53-34.73,117.45c0,0-10.74,99.76-32.83,114.28,0,0,2.79,12,33.78,22.38A285.7,285.7,0,0,0,234,936.65a287.15,287.15,0,0,0,23.74-75.21,73.39,73.39,0,0,1,28.21-44.32l8.48-89.79Z"/><path d="M248.81,728l5.65,18.74s53.4.71,72.14-5c0,0-2.12,83.81,17,106.44,0,0,72,64.84,68,118.47,0,0,12.53,0,19-7,0,0-35.58-94.85-73.18-112.34,0,0-16.18-56.38-4.93-91.27,0,0,5.19-16.72,3.17-33.73C355.63,722.33,302.6,739.7,248.81,728Z"/><path class="cls-5" d="M287.26,816.58s-32-61-40-92.93l-1.65-6.43C240.79,727.8,236,739,231.43,750.89q-3.63,9.36-6.78,18.42a89.23,89.23,0,0,0,46.78,65.63S279.44,820.74,287.26,816.58Z"/><path class="cls-6" d="M309.93,531.53l-17.19-22.41s-33.57,7.51-59.41,40.87c0,0-24.68,95.47,6.91,173,0,0,90.54,18.95,116.23,0C356.47,723,345.65,573.28,309.93,531.53Z"/><polygon class="cls-7" points="234.12 642.15 342.39 683.14 316.55 745.52 212.74 704.08 234.12 642.15"/><path class="cls-3" d="M303.7,633.4a135.62,135.62,0,0,1-10.07,21.05,138.63,138.63,0,0,1-33.24,38.06c-.78.29-1.93.69-3.33,1.11,0,0-3.7,1-7.39,1.83-7.43,1.72-14.24,0-18.32,3.24a5.45,5.45,0,0,0-2.12,3.07,5.7,5.7,0,0,0,1,4.23h11.92a56.8,56.8,0,0,0-3.06,8.21c-2.55,8.84-1.4,13.46-1.07,14.66l.14.52a4.5,4.5,0,0,0,.71,1.27,5.27,5.27,0,0,0,2.62,1.66c1.84.57,13.4,3.53,29.31,7.38a2.42,2.42,0,0,0,1.38-.44,2.32,2.32,0,0,0,.76-.93q1-2.28,1.93-4.7a108.1,108.1,0,0,0,6.44-26.41s78.83-52.79,69.35-73.81S303.7,633.4,303.7,633.4Z"/><path class="cls-8" d="M302.62,639.3s23.83-3.14,31.88,2.34c0,0-26.84,55.31-62.42,60.37,0,0,2.73,27.71-8,36.51h8.79s5.09-7.82,7.43-29.42c0,0,65.28-42.13,71.21-70.7,0,0-1.11-47.12-47.11-5.2Z"/><path class="cls-9" d="M356.17,634s-21.06-88-33.33-100.78c0,0-7.46-11.47-25.86-9.07,0,0-19.13,4.06-20.33,19.74,0,0-4,17.28,15.67,70.73l2.61,24.92S323.76,623.58,356.17,634Z"/><path class="cls-10" d="M302.15,523.77s15.71,15,14.09,50.22c0,0,19.22,25.25,18,56.46,0,0,17.87,1.06,21.91,3.5,0,0-20.16-86.48-32-99.17C324.15,534.78,316.79,523.36,302.15,523.77Z"/><path d="M276.39,797l10.87,21.9a75.07,75.07,0,0,0-10.72,11A77.42,77.42,0,0,0,262,860.36a323,323,0,0,1-9,34.75,327.67,327.67,0,0,1-40.18,82.74s-7.27,0-19.47-7.24a104.13,104.13,0,0,0,21.22-19.18c14.75-17.63,20.38-36.57,27.13-59.29,1.89-6.34,3-3.59,9-33.67A167.73,167.73,0,0,1,276.39,797Z"/><path class="cls-5" d="M226.58,440l-11.7-.86s-10.21-10.34,3.7-24.74c0,0,13.78-12.07,38-14.28,0,0,38.28-5.3,45.79,21.17,0,0,17.36,7,11.33,39.39,0,0-13.18,4.68-21.18,28.93,0,0-9.69-.26-10.23,1.41l-5.27-8s7.58-6.9,2.35-15.84c0,0-8.62-18.1-18.86,2L254,466s-2.29-19.63-8.83-24.21c0,0-19.73-3.16-24.42-11.55Z"/><path class="cls-11" d="M158.91,966.69a19.23,19.23,0,0,1,4.9-13.09c1.29-1.43-.83-3.56-2.12-2.12a22.36,22.36,0,0,0-5.78,15.21,1.5,1.5,0,0,0,3,0Z"/><path class="cls-11" d="M168.73,962.86a26.61,26.61,0,0,0-21.87-9.67c-1.92.11-1.94,3.11,0,3A23.79,23.79,0,0,1,166.61,965a1.5,1.5,0,1,0,2.12-2.12Z"/><path class="cls-11" d="M369.33,991.83A83.66,83.66,0,0,0,357,974.5c-1.32-1.42-3.43.71-2.12,2.12a80.94,80.94,0,0,1,11.91,16.72c.92,1.7,3.51.19,2.59-1.51Z"/><path class="cls-11" d="M372.17,982.78a80.88,80.88,0,0,0-30.29,8.67c-1.72.89-.2,3.48,1.51,2.59a77.12,77.12,0,0,1,28.78-8.26c1.91-.16,1.93-3.16,0-3Z"/><path class="cls-12" d="M540.23,598.39l20.21,100.74,23.14-12.85-19-93.41S549.74,590.83,540.23,598.39Z"/><path class="cls-13" d="M535.58,578.06l4.77,20.5L564.88,594l-4.78-23.14S557.92,568.13,535.58,578.06Z"/><path class="cls-14" d="M530.42,556.13l6,25.88,24.73-6.15-5.23-26S548.81,545.6,530.42,556.13Z"/><path class="cls-15" d="M547.39,569.29c-1.91-6.16-3-12.54-4.88-18.69a63.7,63.7,0,0,0-12.09,5.53l6,25.88,13.84-3.44C549.16,575.51,548.34,572.38,547.39,569.29Z"/><path class="cls-12" d="M600.19,571.78,569,669.67h26.46l28.72-90.89S612.18,569.79,600.19,571.78Z"/><path class="cls-13" d="M606,551.75,600.21,572l23.65,7.94,7-22.55S630.35,553.91,606,551.75Z"/><path class="cls-14" d="M612.12,530.07l-7.35,25.51,24.61,6.63,8-25.25S633.31,529.78,612.12,530.07Z"/><path class="cls-15" d="M620.57,549.81c1.32-6.31,3.48-12.41,4.81-18.71a63.52,63.52,0,0,0-13.26-1l-7.35,25.51,13.77,3.71C619.1,556.11,619.91,553,620.57,549.81Z"/><path class="cls-12" d="M638.74,578.12,607.53,676H634l28.71-90.89S650.73,576.13,638.74,578.12Z"/><path class="cls-13" d="M644.55,558.09l-5.79,20.24,23.65,7.94,7.05-22.55S668.9,560.25,644.55,558.09Z"/><path class="cls-14" d="M650.67,536.41l-7.35,25.51,24.61,6.63,8-25.25S671.86,536.12,650.67,536.41Z"/><path class="cls-15" d="M659.12,556.15c1.33-6.31,3.48-12.41,4.81-18.71a63.52,63.52,0,0,0-13.26-1l-7.35,25.51,13.77,3.71C657.65,562.45,658.46,559.31,659.12,556.15Z"/><path class="cls-16" d="M495.14,637.89l6.13,248.39s93.32,29.36,209.79,0V637.89Z"/><path class="cls-11" d="M495.38,641.79s-2.74-7.3,10.3-6.84l132.46,0v6.86"/><path class="cls-11" d="M710.93,641.79s1.48-7.3-5.58-6.84l-71.82,0v6.86"/><path class="cls-13" d="M681.61,643.79h28.91l1.08,248.93s-101.89,26.38-211,0V872.13s63.95,20.59,153.92,14.09C654.52,886.22,674.39,771.69,681.61,643.79Z"/><line class="cls-17" x1="1237.74" y1="604.42" x2="1226.45" y2="623.36"/><circle cx="1225.09" cy="625.22" r="4.29"/><line class="cls-17" x1="1320.2" y1="606.03" x2="1331.48" y2="624.98"/><circle cx="1332.85" cy="626.84" r="4.29"/><ellipse class="cls-11" cx="1286.67" cy="531.15" rx="82.88" ry="79.48"/><circle class="cls-18" cx="1284.64" cy="533.89" r="83.08"/><polyline class="cls-19" points="1284.32 480.61 1286.66 533.92 1263.82 571.41"/><path class="cls-16" d="M1313.58,434.91l54.64,33.55s15.91-18.32-11.75-35C1356.47,433.42,1328.58,413.12,1313.58,434.91Z"/><path class="cls-20" d="M1360.19,436.26a46,46,0,0,0,2.42-4.87,3,3,0,0,0,.32-1.13,2.47,2.47,0,0,0-.43-1.33c-1.38-2.26-4.2-3.09-6.77-3.74a1.72,1.72,0,0,0-1-.06,1.78,1.78,0,0,0-.77.67l-3.41,4.42"/><path class="cls-13" d="M1360.83,427.2c-1.49,1.64-2.3,4.05-3.69,5.77l-.75.9,3.8,2.39a46,46,0,0,0,2.42-4.87,3,3,0,0,0,.32-1.13,2.47,2.47,0,0,0-.43-1.33A5.86,5.86,0,0,0,1360.83,427.2Z"/><path class="cls-13" d="M1367.9,443.59s-2.46,5.86-22.35,10.63l23,14.25S1377.31,457.08,1367.9,443.59Z"/><path class="cls-16" d="M1261.69,431.85l-54.64,33.55s-15.91-18.31,11.75-35C1218.8,430.36,1246.7,410.06,1261.69,431.85Z"/><path class="cls-16" d="M1215.08,433.2a46.78,46.78,0,0,1-2.42-4.86,3.55,3.55,0,0,1-.32-1.13,2.59,2.59,0,0,1,.43-1.34c1.39-2.26,4.21-3.09,6.78-3.74a1.77,1.77,0,0,1,1-.06,1.86,1.86,0,0,1,.78.67l3.4,4.42"/><path class="cls-13" d="M1214.45,424.15c1.49,1.63,2.3,4,3.68,5.76.25.31.5.61.76.91l-3.81,2.38a46.78,46.78,0,0,1-2.42-4.86,3.55,3.55,0,0,1-.32-1.13,2.59,2.59,0,0,1,.43-1.34A5.74,5.74,0,0,1,1214.45,424.15Z"/><path class="cls-13" d="M1207.38,440.53s2.46,5.86,22.35,10.64l-23,14.24S1198,454,1207.38,440.53Z"/><circle cx="1286.67" cy="533.89" r="4.29"/><path class="cls-13" d="M1190.34,635.62H987.27a55.55,55.55,0,0,0-21.75,8,51.51,51.51,0,0,0-12.21,10.71,53.88,53.88,0,0,0-12.1,33.91,55.79,55.79,0,0,0,9.8,32.17,56.71,56.71,0,0,0,31.8,22.16h206.55Z"/><path class="cls-16" d="M1191.82,641.19v-5.57H988s-14,1.74-22.06,8h225.91"/><path class="cls-16" d="M1401,742.52H1178.9c-2.92-.7-20.22-5.21-30.49-25.86-1.8-3.63-10.92-22.93-5.08-44.26,6.11-22.26,24.24-31.09,30-33.9a48.9,48.9,0,0,1,7.39-2.88H1418.6v106.9Z"/><path class="cls-11" d="M1402.31,727.54H1196.15c-2.71-.52-18.77-3.89-28.29-19.29-1.68-2.71-10.14-17.1-4.72-33,5.67-16.61,22.49-23.19,27.86-25.29a50.15,50.15,0,0,1,6.86-2.14H1418.6v79.72Z"/><path class="cls-13" d="M1234.36,851.9h203.07a55.21,55.21,0,0,0,21.75-7.95,51.42,51.42,0,0,0,12.2-10.7,53.92,53.92,0,0,0,12.11-33.91,55.85,55.85,0,0,0-9.8-32.17,56.65,56.65,0,0,0-31.8-22.16H1235.34Z"/><path class="cls-16" d="M1232.88,846.34v5.56h203.85s14-1.74,22.06-7.95H1232.88"/><path class="cls-16" d="M1023.65,745H1245.8c2.92.7,20.22,5.21,30.48,25.86,1.81,3.63,10.93,22.93,5.08,44.25-6.1,22.27-24.23,31.09-30,33.91a47.18,47.18,0,0,1-7.38,2.87H1006.1V745Z"/><path class="cls-11" d="M1022.39,760h206.16c2.71.52,18.77,3.89,28.29,19.29,1.68,2.71,10.14,17.1,4.72,33-5.67,16.61-22.49,23.19-27.86,25.29a50.15,50.15,0,0,1-6.86,2.14H1006.1V760Z"/><path class="cls-21" d="M1204.08,854.76H881.24a104.71,104.71,0,0,0-34.58,10,79.56,79.56,0,0,0-19.4,13.43c-18.48,17.58-19.16,37-19.24,42.54-.1,6.06.64,23.33,15.57,40.36,17.77,20.26,43.48,26.32,50.56,27.79h328.37Z"/><path class="cls-22" d="M1206.42,861.74v-7H882.36s-22.2,2.19-35.08,10h359.14"/><path class="cls-22" d="M1469.53,988.85H1190.87c-3.66-.87-25.36-6.53-38.23-32.44-2.27-4.55-13.71-28.76-6.38-55.51,7.66-27.93,30.4-39,37.66-42.53a60.42,60.42,0,0,1,9.27-3.61h298.36V988.85Z"/><path class="cls-11" d="M1470.46,970.06H1211.85c-3.39-.66-23.53-4.88-35.48-24.2-2.1-3.39-12.72-21.44-5.92-41.39,7.11-20.83,28.22-29.09,35-31.73a63.8,63.8,0,0,1,8.6-2.68h276.89v100Z"/><polygon class="cls-21" points="1207.13 681.45 1243.38 681.45 1243.38 743.84 1225.26 722.96 1207.13 743.84 1207.13 681.45"/><polygon class="cls-23" points="1211.3 681.45 1247.55 681.45 1247.55 741.05 1229.42 721.1 1211.3 741.05 1211.3 681.45"/><path class="cls-24" d="M417.8,341.12c21.78,19.06,57.81,14.9,79.2-4.6s29.51-50.43,27.41-79.3c-1.16-16-5.1-32-3.53-47.92s10.54-32.79,26-37c23.23-6.34,42.54,17.16,63.63,28.79s47.29,11.41,70.61,4.93,44.58-18.63,65.9-30.07a1304.89,1304.89,0,0,1,124.35-58.48c20.1-8.19,39.84-17.35,60.7-23.33C959,86.39,986.89,82.5,1014.8,80.3c56.22-4.42,114.1-1.83,166.76,18.34s99.74,59.82,119.24,112.74c14.85,40.32,12.82,85.62-.3,126.54-2.2,6.88-4.75,13.94-4.07,21.14s5.73,14.6,12.93,15.23,13-5.2,16.82-11.2c13.69-21.62,12.12-51.82-3.75-71.9-3-3.78-6.49-7.33-8.19-11.85-3.37-9,1.25-18.81,5.79-27.27q21.73-40.4,44.85-80"/><path class="cls-24" d="M615.37,232.78c11.54-8.38,28-7,40.58-.35,4.68,2.48,9.11,5.73,11.93,10.21,6.08,9.67,3.3,22.23.09,33.19a772,772,0,0,1-33,91"/><path class="cls-24" d="M709.36,216c6.24,1.52,10.24,8,10.88,14.45s-1.34,12.74-3.29,18.87q-14.6,45.61-29.18,91.25a180.67,180.67,0,0,1,98.35-30.12c8-.05,17.49,1.27,21.34,8.32,3.77,6.9,0,15.49-4.79,21.72a70.18,70.18,0,0,1-37.18,24.8c-2.86.76-6,1.34-8.74.3-4.14-1.55-6.31-6.34-6.2-10.76s2-8.55,3.91-12.55q28.13-59.81,56.24-119.62"/><path class="cls-24" d="M655.65,143.31c2.4-2,6.43-1,8.24,1.6s1.76,6.09.79,9.09-2.75,5.65-4.26,8.41a52.38,52.38,0,0,0-3.75,8.63,4.2,4.2,0,0,0-.18,3c.63,1.39,2.47,1.68,4,1.59,7-.44,13.06-4.89,18.64-9.16l21-16.08c1-.77,2.78-1.35,3.22-.17"/><path class="cls-24" d="M925.44,292.34c-4-2.86-8.22-5.83-13.09-6-5.71-.21-10.82,3.46-14.87,7.49-20.72,20.69-25.57,53.57-46.69,73.85-2.29,2.19-5.29,4.36-8.37,3.58-2.11-.53-3.64-2.33-4.82-4.16-4.09-6.31-5.69-13.91-6.6-21.37-1.83-15.06-1.18-30.33.46-45.41,3.32-30.34,11.07-61.1,29.22-85.64,11.92-16.11,30.18-29.73,50.16-28.26a47.69,47.69,0,0,1,19,5.79c17.09,9.19,28.72,26.63,34.15,45.27s5.21,38.47,3.14,57.77c-3.17,29.44-10.83,59-27.1,83.71"/><path class="cls-24" d="M934.24,127.42c1.51-1.59,3.35-3.3,5.52-3.07a4.91,4.91,0,0,1,3.85,3.71,14.46,14.46,0,0,1,.06,5.64l-2.38,19.63a3.36,3.36,0,0,0,.24,2.2,2.86,2.86,0,0,0,1.73,1.07,11.81,11.81,0,0,0,9.14-1.72,28.84,28.84,0,0,0,6.89-6.57c8-9.71,14.32-20.83,23.72-29.15"/><path class="cls-24" d="M991.76,208.14a31.06,31.06,0,0,1,22.7-9.26,22.94,22.94,0,0,1,10.39,2.54,24.44,24.44,0,0,1,9.17,9.4c5.72,9.8,6.45,21.7,6,33-1.57,44.67-18.34,87.28-26.42,131.24"/><path class="cls-24" d="M1099.06,375.72c-2.87,4.61-10.13,4.61-14.34,1.18s-5.91-9-6.65-14.43c-2.52-18.39,3.69-36.69,8.77-54.54a468.93,468.93,0,0,0,17.84-128.19c0-5.68-.15-11.55-2.53-16.7s-7.58-9.42-13.24-8.93c-7.36.63-11.72,8.28-17.68,12.63-9.69,7.06-23.8,4.78-33.59-2.13s-16.25-17.48-22.43-27.74"/><path class="cls-24" d="M1147.16,291.27c4.2,1.29,8.63-.68,13-1.11,9.66-1,18.74,6.08,23,14.81s4.51,18.81,4.05,28.5c-.33,6.85-1.05,13.87-4.13,20s-9,11.24-15.86,11.56a5.23,5.23,0,0,1-3.55-.85,5.44,5.44,0,0,1-1.57-2.47c-3.62-9.53.8-21.41,9.77-26.25s21.33-2,27.31,6.23c4.53,6.25,6.36,15.53,13.67,18a5.74,5.74,0,0,0,4.51-.1,7.24,7.24,0,0,0,2.59-2.81c4.17-6.8,6.23-14.66,8-22.44a391.75,391.75,0,0,0,8.39-54.93"/><path class="cls-24" d="M1219.49,207.44a292.21,292.21,0,0,1-1,39.14"/><path class="cls-24" d="M1298.87,161.28c1.26-3.41,6.46-3.73,9.16-1.3s3.4,6.37,3.5,10-.21,7.39,1.06,10.79,4.82,6.35,8.34,5.42c2.58-.68,4.25-3.13,5.58-5.45a94.26,94.26,0,0,0,10.83-29.34c.69-3.66,1.58-8,5-9.5"/><path class="cls-24" d="M1344,263.13a61.57,61.57,0,0,1,27-20.4c7.1-2.73,15.37-4,22.14-.54,8.08,4.18,11.58,13.8,13.41,22.72,6.71,32.64.54,66.78-10.79,98.12-.18.49-.48,1.08-1,1.07s-.41-1.1,0-.81"/><path class="cls-24" d="M807.34,464.37c-4.28-4.63-12.28-4.41-17.14-.4s-6.73,10.86-5.94,17.12C785,487,788.06,492.7,793,496c6.52,4.26,15.52,3.59,22.13-.54s11-11.21,13.16-18.69c2.94-10.14,2-21.76-4.3-30.27s-18.24-12.93-28-8.91"/><path class="cls-24" d="M805.71,415.87a65.14,65.14,0,0,0,16.23,2.46c1.77,0,3.66,0,5.07-1.09s2-2.95,2.45-4.71a65.74,65.74,0,0,0,1.83-17.34"/><path class="cls-24" d="M848,495.74a150.19,150.19,0,0,0,7.5-34.15c.42-4.28-.06-9.75-4.11-11.18-1.22-.42-2.65-.42-3.6-1.29-2-1.82.08-5,2.19-6.7,6.63-5.22,14.83-8.83,23.28-8.64s17,4.65,20.78,12.2c2.26,4.52,2.7,9.7,3,14.75q1.4,22.33.55,44.75"/><path class="cls-24" d="M921.56,461.27c5.15-2.48,11.61,1.13,14.08,6.28s1.94,11.2.94,16.83c-1.15,6.55-4.59,14.45-11.25,14.41-6.39,0-9.86-7.47-11.08-13.75a77.17,77.17,0,0,1,.08-31.53c1.78-7.93,5.94-16.39,13.71-18.75,6-1.84,12.72.66,17.46,4.81s7.94,9.76,11,15.25c6.39-6,13.39-12.37,22.1-13.51a5.79,5.79,0,0,1,3.88.51,6.14,6.14,0,0,1,2.21,3.43c5.77,17.1-2.07,35.49-3.34,53.5,0,.76,0,1.73.77,2s.91-1.4.24-1"/><path class="cls-24" d="M969.94,384.14c.35,5.89-.49,11.25-1.51,17-.27,1.56-2.49,7.86-.91,3.61"/><path class="cls-24" d="M1024.61,450.77c-4.42-.35-8.49,3-10.33,7s-1.9,8.63-1.72,13.06c.23,5.74.84,11.6,3.25,16.82s6.91,9.74,12.54,10.89c6.64,1.34,13.43-2.23,18.12-7.11,7.14-7.42,10.7-17.78,11.3-28.06.66-11.23-2.43-23.31-10.92-30.7s-23-8.08-30.35.46"/><path class="cls-24" d="M1090.84,505c-1.77,2.77-6.33,2.24-8.5-.22s-2.58-6-2.74-9.26c-1.39-27.66,6.89-55.1,5.69-82.76-.09-2.11-.48-4.6-2.37-5.56a6.33,6.33,0,0,0-4.06-.08c-5.85,1.17-12,2.09-17.71.47s-11-6.43-11.26-12.39"/><path class="cls-24" d="M1105.87,448.17c3.65-2.19,8.7-.26,11.17,3.22s2.93,8,2.87,12.24c-.1,6.89-1.33,13.75-1,20.64s2.42,14.12,7.71,18.55,14.26,4.73,18.52-.69c2.84-3.62,3-8.6,3-13.2l.2-93.13"/></svg>