<svg width="41" height="41" viewBox="0 0 41 41" fill="none" xmlns="http://www.w3.org/2000/svg">
    <path d="M41 20.5C41 31.8218 31.8218 41 20.5 41C9.17816 41 0 31.8218 0 20.5C0 9.17816 9.17816 0 20.5 0C31.8218 0 41 9.17816 41 20.5Z" fill="#577590"/>
    <path d="M27.88 10.9214C26.24 9.6915 13.12 9.28161 11.48 10.9214C9.84003 12.5613 9.84003 17.4814 9.84003 17.4814C9.84003 17.4814 6.35214 17.6893 4.92003 19.1214C3.48792 20.5535 3.28003 24.0414 3.28003 24.0414H4.92003H11.48H29.52H36.9C36.9 24.0414 36.6701 20.5753 35.26 19.1214C33.637 17.4479 29.52 17.4814 29.52 17.4814C29.52 17.4814 29.52 12.1514 27.88 10.9214Z" stroke="white" stroke-width="1.64"/>
    <circle cx="9.84006" cy="24.5998" r="3.28" fill="white"/>
    <circle cx="29.52" cy="24.6" r="1.64" fill="#577590"/>
    <circle cx="29.52" cy="24.5998" r="3.28" fill="white"/>
    <path d="M5.73999 23.7782C6.55999 19.6794 12.3 18.8594 13.94 23.7782M25.42 23.7782C26.24 19.6799 31.98 18.8598 33.62 23.7782" stroke="white" stroke-width="0.82"/>
    <circle cx="9.83995" cy="24.6" r="1.64" fill="#577590"/>
    <circle cx="29.52" cy="24.6" r="1.64" fill="#577590"/>
    <path d="M9.83997 16.3184H29.52" stroke="white" stroke-width="0.82"/>
    <path d="M4.09996 19.6802H2.45996V21.3202H3.27996" stroke="white" stroke-width="0.656"/>
    <path d="M19.6801 18.04V23.78" stroke="white" stroke-width="0.656"/>
    </svg>