<svg width="41" height="41" viewBox="0 0 41 41" fill="none" xmlns="http://www.w3.org/2000/svg">
    <circle cx="20.5" cy="20.5" r="20.5" fill="#43AA8B"/>
    <path d="M20.5335 21.3001C21.5559 19.6826 22.5208 17.8638 23.5801 15.5601C27.1408 21.6161 29.1179 24.5566 32.6001 28.6801H26.5668M20.5335 21.3001C18.8397 19.2993 17.8915 17.9459 16.2001 15.5601C14.3025 19.9522 12.8848 22.4759 9.64014 27.0401H14.5601M20.5335 21.3001C19.6098 22.7613 18.6391 24.0583 17.5093 25.4001M16.0745 27.0401C15.5999 27.5654 15.097 28.1084 14.5601 28.6801H20.5335M16.0745 27.0401H14.5601M16.0745 27.0401C16.5828 26.4774 17.0587 25.9352 17.5093 25.4001M20.5335 28.6801C21.8082 27.2634 22.4838 26.0808 23.5801 22.9401C24.5533 25.2146 25.176 26.4791 26.5668 28.6801M20.5335 28.6801H26.5668M14.5601 27.0401L16.2001 22.1201L17.5093 25.4001" stroke="white" stroke-width="1.64"/>
    <circle cx="9.64" cy="10.64" r="1.64" fill="white"/>
    <circle cx="10.0501" cy="17.6097" r="0.41" fill="white"/>
    <circle r="0.82" transform="matrix(1 0 0 -1 8.82 14.7401)" fill="white"/>
    </svg>
