<svg width="41" height="41" viewBox="0 0 41 41" fill="none" xmlns="http://www.w3.org/2000/svg">
    <circle cx="20.5" cy="20.5" r="20.5" fill="#F94144"/>
    <path d="M13.7754 29.3903C11.1202 29.1481 8.88784 28.5665 8.39187 27.6456C7.04599 25.1466 13.1024 16.3999 16.4671 16.3999C19.8318 16.3999 25.2154 25.1466 24.5424 27.6456C24.2737 28.6434 21.8595 29.2428 18.9702 29.4438M13.7754 29.3903C13.997 29.4105 14.2216 29.4283 14.4483 29.4438C15.9335 29.5453 17.5123 29.5453 18.9702 29.4438M13.7754 29.3903V23.2723H18.9702V29.4438" stroke="white" stroke-width="1.64"/>
    <path d="M18.04 9.84033L18.86 17.2203M18.04 9.84033C19.9554 10.0515 21.5105 10.1853 22.96 10.2323C25.1032 10.3016 27.0154 10.1812 29.52 9.84033M18.04 9.84033C20.3098 9.55091 22.0662 9.4221 23.78 9.42633M29.52 9.84033L28.7 27.8803C27.0989 27.9906 26.2012 28.1346 24.6 27.8803M29.52 9.84033C27.9795 9.65908 26.6718 9.53217 25.42 9.46997C24.8676 9.44252 24.326 9.42768 23.78 9.42633M23.78 9.42633V5.74023H26.5475" stroke="white" stroke-width="1.64"/>
    <path d="M18.86 15.5801C22.5571 16.163 24.7279 16.0971 28.7 15.5801M21.32 19.6801C23.5535 20.0044 25.3295 19.9249 28.7 19.6801" stroke="white" stroke-width="1.64"/>
    </svg>
